<?xml version="1.0" standalone="no"?>
<!DOCTYPE svg PUBLIC "-//W3C//DTD SVG 20010904//EN"
 "http://www.w3.org/TR/2001/REC-SVG-20010904/DTD/svg10.dtd">
<svg version="1.0" xmlns="http://www.w3.org/2000/svg"
 width="1024.000000pt" height="768.000000pt" viewBox="0 0 1024.000000 768.000000"
 preserveAspectRatio="xMidYMid meet">

<g transform="translate(0.000000,768.000000) scale(0.100000,-0.100000)"
fill="#DC2800" stroke="none">
<path d="M4931 4974 c-695 -117 -1124 -830 -900 -1498 201 -602 852 -927 1453
-725 533 178 860 717 771 1269 -103 630 -698 1059 -1324 954z m355 -399 c95
-22 169 -53 249 -106 284 -191 405 -537 300 -866 -36 -113 -88 -196 -185 -293
-97 -97 -180 -149 -293 -185 -207 -66 -437 -42 -617 62 -83 49 -224 190 -273
273 -104 180 -128 410 -62 617 36 113 88 196 185 293 97 97 180 149 294 186
136 43 264 49 402 19z"/>
</g>
</svg>
